# xmcd
#
# Track frame offsets:
#	150
#	12228
#	24917
#	39481
#	55269
#	66505
#	76928
#	90789
#	106150
#	119043
#
# Disc length: 1804 seconds
#
# Revision: 1
# Processed by: cddbd v1.5.2PL0 Copyright (c) Steve Scherf et al.
# Submitted via: EasyCDDAExtractor 10.5.1.1
#
DISCID=73070a0a
DTITLE=Sissy Spacek - Hangin' Up My Heart
DYEAR=1983
DGENRE=Country
TTITLE0=Hangin' Up My Heart
TTITLE1=Have I Told You Lately That I Love You
TTITLE2=He Don't Know Me
TTITLE3=Lonely But Only For You
TTITLE4=This Time I'm Gonna Beat You To The Truck
TTITLE5=Honky Tonkin'
TTITLE6=Old Home Town
TTITLE7=Smooth Talkin' Daddy
TTITLE8=If I Could Only See You Now
TTITLE9=If I Can Just Get Through The Night
EXTD=
EXTT0=
EXTT1=
EXTT2=
EXTT3=
EXTT4=
EXTT5=
EXTT6=
EXTT7=
EXTT8=
EXTT9=
PLAYORDER=
